<svg width="1440" height="732" viewBox="0 0 1440 732" fill="none" xmlns="http://www.w3.org/2000/svg">
<g clip-path="url(#clip0_1_60)">
<path d="M117 71L117.947 114.377L142.951 78.3817L119.539 115.368L160.662 98.1832L120.326 117.037L164.511 124.118L120.056 118.852L153.276 147.951L118.817 120.238L130.523 162.116L117 120.755L103.477 162.116L115.183 120.238L80.724 147.951L113.944 118.852L69.4886 124.118L113.674 117.037L73.3377 98.1832L114.461 115.368L91.0492 78.3817L116.053 114.377L117 71Z" fill="#FFA400"/>
<path d="M1302 547L1302.95 590.377L1327.95 554.382L1304.54 591.368L1345.66 574.183L1305.33 593.037L1349.51 600.118L1305.06 594.852L1338.28 623.951L1303.82 596.238L1315.52 638.116L1302 596.755L1288.48 638.116L1300.18 596.238L1265.72 623.951L1298.94 594.852L1254.49 600.118L1298.67 593.037L1258.34 574.183L1299.46 591.368L1276.05 554.382L1301.05 590.377L1302 547Z" fill="#E34135"/>
<g filter="url(#filter0_f_1_60)">
<path d="M1476.35 175C1476.35 271.291 1398.29 349.35 1302 349.35C1205.71 349.35 1127.65 271.291 1127.65 175C1127.65 78.7092 1205.71 0.65 1302 0.65C1398.29 0.65 1476.35 78.7092 1476.35 175Z" stroke="#FF94C8" stroke-opacity="0.2" stroke-width="1.3"/>
</g>
<g filter="url(#filter1_f_1_60)">
<path d="M1477 175C1477 271.65 1398.65 350 1302 350C1205.35 350 1127 271.65 1127 175C1127 78.3502 1205.35 0 1302 0C1398.65 0 1477 78.3502 1477 175Z" fill="#CC2A78" fill-opacity="0.45"/>
</g>
<g filter="url(#filter2_f_1_60)">
<path d="M331.25 615C331.25 725.043 242.043 814.25 132 814.25C21.9573 814.25 -67.25 725.043 -67.25 615C-67.25 504.957 21.9573 415.75 132 415.75C242.043 415.75 331.25 504.957 331.25 615Z" stroke="#BA96FF" stroke-opacity="0.25" stroke-width="1.5"/>
</g>
<g filter="url(#filter3_f_1_60)">
<path d="M332 615C332 725.457 242.457 815 132 815C21.5431 815 -68 725.457 -68 615C-68 504.543 21.5431 415 132 415C242.457 415 332 504.543 332 615Z" fill="#8F54FF" fill-opacity="0.5"/>
</g>
</g>
<defs>
<filter id="filter0_f_1_60" x="1124" y="-3" width="356" height="356" filterUnits="userSpaceOnUse" color-interpolation-filters="sRGB">
<feFlood flood-opacity="0" result="BackgroundImageFix"/>
<feBlend mode="normal" in="SourceGraphic" in2="BackgroundImageFix" result="shape"/>
<feGaussianBlur stdDeviation="1.5" result="effect1_foregroundBlur_1_60"/>
</filter>
<filter id="filter1_f_1_60" x="877" y="-250" width="850" height="850" filterUnits="userSpaceOnUse" color-interpolation-filters="sRGB">
<feFlood flood-opacity="0" result="BackgroundImageFix"/>
<feBlend mode="normal" in="SourceGraphic" in2="BackgroundImageFix" result="shape"/>
<feGaussianBlur stdDeviation="125" result="effect1_foregroundBlur_1_60"/>
</filter>
<filter id="filter2_f_1_60" x="-73" y="410" width="410" height="410" filterUnits="userSpaceOnUse" color-interpolation-filters="sRGB">
<feFlood flood-opacity="0" result="BackgroundImageFix"/>
<feBlend mode="normal" in="SourceGraphic" in2="BackgroundImageFix" result="shape"/>
<feGaussianBlur stdDeviation="2.5" result="effect1_foregroundBlur_1_60"/>
</filter>
<filter id="filter3_f_1_60" x="-368" y="115" width="1000" height="1000" filterUnits="userSpaceOnUse" color-interpolation-filters="sRGB">
<feFlood flood-opacity="0" result="BackgroundImageFix"/>
<feBlend mode="normal" in="SourceGraphic" in2="BackgroundImageFix" result="shape"/>
<feGaussianBlur stdDeviation="150" result="effect1_foregroundBlur_1_60"/>
</filter>
<clipPath id="clip0_1_60">
<rect width="1440" height="732" fill="white"/>
</clipPath>
</defs>
</svg>
